<svg xmlns="http://www.w3.org/2000/svg" xmlns:xlink="http://www.w3.org/1999/xlink" contentStyleType="text/css" data-diagram-type="SEQUENCE" height="949px" preserveAspectRatio="none" style="width:786px;height:949px;background:#FFFFFF;" version="1.1" viewBox="0 0 786 949" width="786px" zoomAndPan="magnify"><title>Biertje &amp; Trein Avondje</title><defs/><g><text fill="#000000" font-family="sans-serif" font-size="14" font-weight="bold" lengthAdjust="spacing" textLength="184.2627" x="297.0852" y="27.9951">Biertje &amp; Trein Avondje</text><rect fill="none" height="90.5313" style="stroke:#000000;stroke-width:1.5;" width="250.5024" x="10" y="468.9219"/><rect fill="none" height="75.3984" style="stroke:#000000;stroke-width:1.5;" width="759.4331" x="10" y="674.8516"/><g><title>Wiebe</title><rect fill="#000000" fill-opacity="0.00000" height="750.0547" width="8" x="40.9229" y="118.5938"/><line style="stroke:#181818;stroke-width:0.5;stroke-dasharray:5,5;" x1="44" x2="44" y1="118.5938" y2="868.6484"/></g><g><title>Jij</title><rect fill="#000000" fill-opacity="0.00000" height="750.0547" width="8" x="233.0024" y="118.5938"/><line style="stroke:#181818;stroke-width:0.5;stroke-dasharray:5,5;" x1="236.5024" x2="236.5024" y1="118.5938" y2="868.6484"/></g><g><title>Trein</title><rect fill="#000000" fill-opacity="0.00000" height="750.0547" width="8" x="422.5938" y="118.5938"/><line style="stroke:#181818;stroke-width:0.5;stroke-dasharray:5,5;" x1="425.752" x2="425.752" y1="118.5938" y2="868.6484"/></g><g><title>OverstapStation</title><rect fill="#000000" fill-opacity="0.00000" height="750.0547" width="8" x="637.3091" y="118.5938"/><line style="stroke:#181818;stroke-width:0.5;stroke-dasharray:5,5;" x1="640.4614" x2="640.4614" y1="118.5938" y2="868.6484"/></g><g><title>Spel</title><rect fill="#000000" fill-opacity="0.00000" height="750.0547" width="8" x="733.2949" y="118.5938"/><line style="stroke:#181818;stroke-width:0.5;stroke-dasharray:5,5;" x1="737.1567" x2="737.1567" y1="118.5938" y2="868.6484"/></g><g class="participant participant-head" data-participant="Wiebe"><text fill="#000000" font-family="sans-serif" font-size="14" lengthAdjust="spacing" textLength="43.8457" x="20" y="115.292">Wiebe</text><ellipse cx="44.9229" cy="50.7969" fill="#E2E2F0" rx="8" ry="8" style="stroke:#181818;stroke-width:0.5;"/><path d="M44.9229,58.7969 L44.9229,85.7969 M31.9229,66.7969 L57.9229,66.7969 M44.9229,85.7969 L31.9229,100.7969 M44.9229,85.7969 L57.9229,100.7969" fill="none" style="stroke:#181818;stroke-width:0.5;"/></g><g class="participant participant-tail" data-participant="Wiebe"><text fill="#000000" font-family="sans-serif" font-size="14" lengthAdjust="spacing" textLength="43.8457" x="20" y="880.6436">Wiebe</text><ellipse cx="44.9229" cy="892.4453" fill="#E2E2F0" rx="8" ry="8" style="stroke:#181818;stroke-width:0.5;"/><path d="M44.9229,900.4453 L44.9229,927.4453 M31.9229,908.4453 L57.9229,908.4453 M44.9229,927.4453 L31.9229,942.4453 M44.9229,927.4453 L57.9229,942.4453" fill="none" style="stroke:#181818;stroke-width:0.5;"/></g><g class="participant participant-head" data-participant="Jij"><text fill="#000000" font-family="sans-serif" font-size="14" lengthAdjust="spacing" textLength="11.9082" x="228.0483" y="115.292">Jij</text><ellipse cx="237.0024" cy="50.7969" fill="#E2E2F0" rx="8" ry="8" style="stroke:#181818;stroke-width:0.5;"/><path d="M237.0024,58.7969 L237.0024,85.7969 M224.0024,66.7969 L250.0024,66.7969 M237.0024,85.7969 L224.0024,100.7969 M237.0024,85.7969 L250.0024,100.7969" fill="none" style="stroke:#181818;stroke-width:0.5;"/></g><g class="participant participant-tail" data-participant="Jij"><text fill="#000000" font-family="sans-serif" font-size="14" lengthAdjust="spacing" textLength="11.9082" x="228.0483" y="880.6436">Jij</text><ellipse cx="237.0024" cy="892.4453" fill="#E2E2F0" rx="8" ry="8" style="stroke:#181818;stroke-width:0.5;"/><path d="M237.0024,900.4453 L237.0024,927.4453 M224.0024,908.4453 L250.0024,908.4453 M237.0024,927.4453 L224.0024,942.4453 M237.0024,927.4453 L250.0024,942.4453" fill="none" style="stroke:#181818;stroke-width:0.5;"/></g><g class="participant participant-head" data-participant="Trein"><rect fill="#E2E2F0" height="30.2969" rx="2.5" ry="2.5" style="stroke:#181818;stroke-width:0.5;" width="49.6836" x="401.752" y="87.2969"/><text fill="#000000" font-family="sans-serif" font-size="14" lengthAdjust="spacing" textLength="35.6836" x="408.752" y="107.292">Trein</text></g><g class="participant participant-tail" data-participant="Trein"><rect fill="#E2E2F0" height="30.2969" rx="2.5" ry="2.5" style="stroke:#181818;stroke-width:0.5;" width="49.6836" x="401.752" y="867.6484"/><text fill="#000000" font-family="sans-serif" font-size="14" lengthAdjust="spacing" textLength="35.6836" x="408.752" y="887.6436">Trein</text></g><g class="participant participant-head" data-participant="OverstapStation"><rect fill="#E2E2F0" height="30.2969" rx="2.5" ry="2.5" style="stroke:#181818;stroke-width:0.5;" width="127.6953" x="577.4614" y="87.2969"/><text fill="#000000" font-family="sans-serif" font-size="14" lengthAdjust="spacing" textLength="113.6953" x="584.4614" y="107.292">OverstapStation</text></g><g class="participant participant-tail" data-participant="OverstapStation"><rect fill="#E2E2F0" height="30.2969" rx="2.5" ry="2.5" style="stroke:#181818;stroke-width:0.5;" width="127.6953" x="577.4614" y="867.6484"/><text fill="#000000" font-family="sans-serif" font-size="14" lengthAdjust="spacing" textLength="113.6953" x="584.4614" y="887.6436">OverstapStation</text></g><g class="participant participant-head" data-participant="Spel"><rect fill="#E2E2F0" height="30.2969" rx="2.5" ry="2.5" style="stroke:#181818;stroke-width:0.5;" width="44.2764" x="715.1567" y="87.2969"/><text fill="#000000" font-family="sans-serif" font-size="14" lengthAdjust="spacing" textLength="30.2764" x="722.1567" y="107.292">Spel</text></g><g class="participant participant-tail" data-participant="Spel"><rect fill="#E2E2F0" height="30.2969" rx="2.5" ry="2.5" style="stroke:#181818;stroke-width:0.5;" width="44.2764" x="715.1567" y="867.6484"/><text fill="#000000" font-family="sans-serif" font-size="14" lengthAdjust="spacing" textLength="30.2764" x="722.1567" y="887.6436">Spel</text></g><rect fill="#EEEEEE" height="3" style="stroke:#EEEEEE;stroke-width:1;" width="779.4331" x="0" y="149.1602"/><line style="stroke:#000000;stroke-width:1;" x1="0" x2="779.4331" y1="149.1602" y2="149.1602"/><line style="stroke:#000000;stroke-width:1;" x1="0" x2="779.4331" y1="152.1602" y2="152.1602"/><rect fill="#EEEEEE" height="23.1328" style="stroke:#000000;stroke-width:2;" width="67.4473" x="355.9929" y="138.5938"/><text fill="#000000" font-family="sans-serif" font-size="13" font-weight="bold" lengthAdjust="spacing" textLength="48.9214" x="361.9929" y="154.6606">Reizen</text><g class="message" data-participant-1="Wiebe" data-participant-2="Trein"><polygon fill="#181818" points="414.5938,188.8594,424.5938,192.8594,414.5938,196.8594,418.5938,192.8594" style="stroke:#181818;stroke-width:1;"/><line style="stroke:#181818;stroke-width:1;" x1="44.9229" x2="420.5938" y1="192.8594" y2="192.8594"/><text fill="#000000" font-family="sans-serif" font-size="13" lengthAdjust="spacing" textLength="244.6958" x="51.9229" y="187.7935">Stapt in trein richting overstapstation</text></g><g class="message" data-participant-1="Trein" data-participant-2="OverstapStation"><polygon fill="#181818" points="629.3091,217.9922,639.3091,221.9922,629.3091,225.9922,633.3091,221.9922" style="stroke:#181818;stroke-width:1;"/><line style="stroke:#181818;stroke-width:1;" x1="426.5938" x2="635.3091" y1="221.9922" y2="221.9922"/><text fill="#000000" font-family="sans-serif" font-size="13" lengthAdjust="spacing" textLength="127.3721" x="433.5938" y="216.9263">Reist naar overstap</text></g><g class="message" data-participant-1="OverstapStation" data-participant-2="Trein"><polygon fill="#181818" points="437.5938,247.125,427.5938,251.125,437.5938,255.125,433.5938,251.125" style="stroke:#181818;stroke-width:1;"/><line style="stroke:#181818;stroke-width:1;" x1="431.5938" x2="640.3091" y1="251.125" y2="251.125"/><text fill="#000000" font-family="sans-serif" font-size="13" lengthAdjust="spacing" textLength="190.7153" x="443.5938" y="246.0591">Overstappen op tweede trein</text></g><g class="message" data-participant-1="Trein" data-participant-2="Jij"><polygon fill="#181818" points="248.0024,276.2578,238.0024,280.2578,248.0024,284.2578,244.0024,280.2578" style="stroke:#181818;stroke-width:1;"/><line style="stroke:#181818;stroke-width:1;" x1="242.0024" x2="425.5938" y1="280.2578" y2="280.2578"/><text fill="#000000" font-family="sans-serif" font-size="13" lengthAdjust="spacing" textLength="165.5913" x="254.0024" y="275.1919">Komt aan bij jouw station</text></g><g class="message" data-participant-1="Jij" data-participant-2="Wiebe"><polygon fill="#181818" points="55.9229,305.3906,45.9229,309.3906,55.9229,313.3906,51.9229,309.3906" style="stroke:#181818;stroke-width:1;"/><line style="stroke:#181818;stroke-width:1;" x1="49.9229" x2="236.0024" y1="309.3906" y2="309.3906"/><text fill="#000000" font-family="sans-serif" font-size="13" lengthAdjust="spacing" textLength="168.0796" x="61.9229" y="304.3247">Haalt Wiebe op bij station</text></g><rect fill="#EEEEEE" height="3" style="stroke:#EEEEEE;stroke-width:1;" width="779.4331" x="0" y="337.957"/><line style="stroke:#000000;stroke-width:1;" x1="0" x2="779.4331" y1="337.957" y2="337.957"/><line style="stroke:#000000;stroke-width:1;" x1="0" x2="779.4331" y1="340.957" y2="340.957"/><rect fill="#EEEEEE" height="23.1328" style="stroke:#000000;stroke-width:2;" width="91.689" x="343.8721" y="327.3906"/><text fill="#000000" font-family="sans-serif" font-size="13" font-weight="bold" lengthAdjust="spacing" textLength="73.1631" x="349.8721" y="343.4575">Aankomst</text><g class="message" data-participant-1="Jij" data-participant-2="Wiebe"><polygon fill="#181818" points="55.9229,377.6563,45.9229,381.6563,55.9229,385.6563,51.9229,381.6563" style="stroke:#181818;stroke-width:1;"/><line style="stroke:#181818;stroke-width:1;" x1="49.9229" x2="236.0024" y1="381.6563" y2="381.6563"/><text fill="#000000" font-family="sans-serif" font-size="13" lengthAdjust="spacing" textLength="134.9321" x="61.9229" y="376.5903">Welkom! Zin in bier?</text></g><g class="message" data-participant-1="Wiebe" data-participant-2="Jij"><polygon fill="#181818" points="225.0024,406.7891,235.0024,410.7891,225.0024,414.7891,229.0024,410.7891" style="stroke:#181818;stroke-width:1;"/><line style="stroke:#181818;stroke-width:1;" x1="44.9229" x2="231.0024" y1="410.7891" y2="410.7891"/><text fill="#000000" font-family="sans-serif" font-size="13" lengthAdjust="spacing" textLength="42.9863" x="51.9229" y="405.7231">Zeker!</text></g><rect fill="#EEEEEE" height="3" style="stroke:#EEEEEE;stroke-width:1;" width="779.4331" x="0" y="439.3555"/><line style="stroke:#000000;stroke-width:1;" x1="0" x2="779.4331" y1="439.3555" y2="439.3555"/><line style="stroke:#000000;stroke-width:1;" x1="0" x2="779.4331" y1="442.3555" y2="442.3555"/><rect fill="#EEEEEE" height="23.1328" style="stroke:#000000;stroke-width:2;" width="136.0146" x="321.7092" y="428.7891"/><text fill="#000000" font-family="sans-serif" font-size="13" font-weight="bold" lengthAdjust="spacing" textLength="117.4888" x="327.7092" y="444.856">Biertjes drinken</text><path d="M10,468.9219 L86.624,468.9219 L86.624,476.0547 L76.624,486.0547 L10,486.0547 L10,468.9219" fill="#EEEEEE" style="stroke:#000000;stroke-width:1.5;"/><rect fill="none" height="90.5313" style="stroke:#000000;stroke-width:1.5;" width="250.5024" x="10" y="468.9219"/><text fill="#000000" font-family="sans-serif" font-size="13" font-weight="bold" lengthAdjust="spacing" textLength="31.624" x="25" y="481.9888">loop</text><text fill="#000000" font-family="sans-serif" font-size="11" font-weight="bold" lengthAdjust="spacing" textLength="120.9624" x="101.624" y="481.1323">[Meerdere biertjes]</text><g class="message" data-participant-1="Jij" data-participant-2="Wiebe"><polygon fill="#181818" points="55.9229,503.1875,45.9229,507.1875,55.9229,511.1875,51.9229,507.1875" style="stroke:#181818;stroke-width:1;"/><line style="stroke:#181818;stroke-width:1;" x1="49.9229" x2="236.0024" y1="507.1875" y2="507.1875"/><text fill="#000000" font-family="sans-serif" font-size="13" lengthAdjust="spacing" textLength="110.1572" x="61.9229" y="502.1216">Geeft een biertje</text></g><g class="message" data-participant-1="Wiebe" data-participant-2="Jij"><polygon fill="#181818" points="225.0024,547.4531,235.0024,551.4531,225.0024,555.4531,229.0024,551.4531" style="stroke:#181818;stroke-width:1;"/><line style="stroke:#181818;stroke-width:1;" x1="44.9229" x2="231.0024" y1="551.4531" y2="551.4531"/><text fill="#000000" font-family="sans-serif" font-size="13" lengthAdjust="spacing" textLength="101.8481" x="51.9229" y="531.2544">Neemt een slok</text><text fill="#000000" font-family="sans-serif" font-size="13" lengthAdjust="spacing" textLength="58.1318" x="51.9229" y="546.3872">"Proost!"</text></g><rect fill="#EEEEEE" height="3" style="stroke:#EEEEEE;stroke-width:1;" width="779.4331" x="0" y="587.0195"/><line style="stroke:#000000;stroke-width:1;" x1="0" x2="779.4331" y1="587.0195" y2="587.0195"/><line style="stroke:#000000;stroke-width:1;" x1="0" x2="779.4331" y1="590.0195" y2="590.0195"/><rect fill="#EEEEEE" height="23.1328" style="stroke:#000000;stroke-width:2;" width="83.2275" x="348.1028" y="576.4531"/><text fill="#000000" font-family="sans-serif" font-size="13" font-weight="bold" lengthAdjust="spacing" textLength="64.7017" x="354.1028" y="592.52">Spelletje</text><g class="message" data-participant-1="Jij" data-participant-2="Wiebe"><polygon fill="#181818" points="55.9229,626.7188,45.9229,630.7188,55.9229,634.7188,51.9229,630.7188" style="stroke:#181818;stroke-width:1;"/><line style="stroke:#181818;stroke-width:1;" x1="49.9229" x2="236.0024" y1="630.7188" y2="630.7188"/><text fill="#000000" font-family="sans-serif" font-size="13" lengthAdjust="spacing" textLength="148.8335" x="61.9229" y="625.6528">Pakt een spelletje erbij</text></g><g class="message" data-participant-1="Wiebe" data-participant-2="Jij"><polygon fill="#181818" points="225.0024,655.8516,235.0024,659.8516,225.0024,663.8516,229.0024,659.8516" style="stroke:#181818;stroke-width:1;"/><line style="stroke:#181818;stroke-width:1;" x1="44.9229" x2="231.0024" y1="659.8516" y2="659.8516"/><text fill="#000000" font-family="sans-serif" font-size="13" lengthAdjust="spacing" textLength="122.3955" x="51.9229" y="654.7856">Klaar om te spelen</text></g><path d="M10,674.8516 L86.624,674.8516 L86.624,681.9844 L76.624,691.9844 L10,691.9844 L10,674.8516" fill="#EEEEEE" style="stroke:#000000;stroke-width:1.5;"/><rect fill="none" height="75.3984" style="stroke:#000000;stroke-width:1.5;" width="759.4331" x="10" y="674.8516"/><text fill="#000000" font-family="sans-serif" font-size="13" font-weight="bold" lengthAdjust="spacing" textLength="31.624" x="25" y="687.9185">loop</text><text fill="#000000" font-family="sans-serif" font-size="11" font-weight="bold" lengthAdjust="spacing" textLength="106.4497" x="101.624" y="687.062">[Ronde spelletje]</text><g class="message" data-participant-1="Jij" data-participant-2="Spel"><polygon fill="#181818" points="725.2949,709.1172,735.2949,713.1172,725.2949,717.1172,729.2949,713.1172" style="stroke:#181818;stroke-width:1;"/><line style="stroke:#181818;stroke-width:1;" x1="237.0024" x2="731.2949" y1="713.1172" y2="713.1172"/><text fill="#000000" font-family="sans-serif" font-size="13" lengthAdjust="spacing" textLength="108.6401" x="244.0024" y="708.0513">Speelt een beurt</text></g><g class="message" data-participant-1="Wiebe" data-participant-2="Spel"><polygon fill="#181818" points="725.2949,738.25,735.2949,742.25,725.2949,746.25,729.2949,742.25" style="stroke:#181818;stroke-width:1;"/><line style="stroke:#181818;stroke-width:1;" x1="44.9229" x2="731.2949" y1="742.25" y2="742.25"/><text fill="#000000" font-family="sans-serif" font-size="13" lengthAdjust="spacing" textLength="108.6401" x="51.9229" y="737.1841">Speelt een beurt</text></g><rect fill="#EEEEEE" height="3" style="stroke:#EEEEEE;stroke-width:1;" width="779.4331" x="0" y="777.8164"/><line style="stroke:#000000;stroke-width:1;" x1="0" x2="779.4331" y1="777.8164" y2="777.8164"/><line style="stroke:#000000;stroke-width:1;" x1="0" x2="779.4331" y1="780.8164" y2="780.8164"/><rect fill="#EEEEEE" height="23.1328" style="stroke:#000000;stroke-width:2;" width="89.3784" x="345.0273" y="767.25"/><text fill="#000000" font-family="sans-serif" font-size="13" font-weight="bold" lengthAdjust="spacing" textLength="70.8525" x="351.0273" y="783.3169">Afsluiting</text><g class="message" data-participant-1="Wiebe" data-participant-2="Jij"><polygon fill="#181818" points="225.0024,817.5156,235.0024,821.5156,225.0024,825.5156,229.0024,821.5156" style="stroke:#181818;stroke-width:1;"/><line style="stroke:#181818;stroke-width:1;" x1="44.9229" x2="231.0024" y1="821.5156" y2="821.5156"/><text fill="#000000" font-family="sans-serif" font-size="13" lengthAdjust="spacing" textLength="73.5947" x="51.9229" y="816.4497">Top avond!</text></g><g class="message" data-participant-1="Jij" data-participant-2="Wiebe"><polygon fill="#181818" points="55.9229,846.6484,45.9229,850.6484,55.9229,854.6484,51.9229,850.6484" style="stroke:#181818;stroke-width:1;"/><line style="stroke:#181818;stroke-width:1;" x1="49.9229" x2="236.0024" y1="850.6484" y2="850.6484"/><text fill="#000000" font-family="sans-serif" font-size="13" lengthAdjust="spacing" textLength="143.7173" x="61.9229" y="845.5825">Tot de volgende keer!</text></g><!--SRC=[TLBBRi8m4BpxApOSUkiFH4ehUcbLr1O14XBgnJG3TM9iv2mWzUkxjWclgf7oqixipAnNVx4FD3TOGkdq_MeQqbryASM6BUZ98703kgDPW74qt7jNDr2ggcW2ymD7LQLI3xf_oA2IfgotJ0BdH0hcwvkDMvFV8tHIavkDToht5Dx7iJ3DXJBsxfYSrk54KZUW2xs-iXKxVajy06fayRE6f2ffv3TCMZjQIjJ6xmxKUudP1PMYbFIYjUNy4pj6T0-CqOVQjNuZ3YNyDN4EAvM25Y9geWp2uta-oSC2BKAH-Xp7sr4TZ6lpCAqNmJSWr0X83I92aLpNKi_0YWbmFIXXhhNUWKt6TDQtdsum3jvtN0mKN9qiJBUm5l6C_sGPw_R8FM4GP1GtUKOs7TE660a9bpDCP5LmvbucYA9bVC8U4s0N-Dh_FvZUzt3LsPr9QtMvWSdHJDHrtDJY9j7CCucdlRThH7EjZBdu1G00]--></g></svg>